<?xml version="1.0" encoding="UTF-8"?>
<svg id="Capa_2" data-name="Capa 2" xmlns="http://www.w3.org/2000/svg" viewBox="0 0 265.16 168.28">
  <defs>
    <style>
      .cls-1 {
        fill: #5d44be;
      }
    </style>
  </defs>
  <g id="Capa_1-2" data-name="Capa 1">
    <path class="cls-1" d="M263.55,158.99l-45.21-45.21c-1.02-1.02-2.4-1.59-3.85-1.59h-39.8c-3.89,0-7.38-1.56-9.92-4.09-2.53-2.55-4.09-6.05-4.09-9.94v-28.07c0-3.86,1.56-7.34,4.07-9.89,2.55-2.53,6.07-4.12,9.94-4.12h36.68c3,0,5.44-2.44,5.44-5.44V5.44c0-3-2.44-5.44-5.44-5.44h-45.25c-3,0-5.44,2.44-5.44,5.44v36.61c0,3.89-1.56,7.41-4.12,9.96-2.53,2.51-6,4.07-9.89,4.07h-28.13c-3.86,0-7.34-1.56-9.87-4.09-2.55-2.53-4.12-6.05-4.12-9.94V5.44c0-3-2.44-5.44-5.44-5.44H5.45C.6,0-1.82,5.86,1.6,9.29l45.21,45.21c1.02,1.02,2.4,1.59,3.85,1.59h39.78c3.91,0,7.48,1.56,10.03,4.12,2.53,2.53,4.09,6.03,4.09,9.89v28.07c0,3.89-1.59,7.41-4.14,9.94-2.55,2.53-6.07,4.09-9.98,4.09h-36.57c-3,0-5.44,2.44-5.44,5.44v45.21c0,3,2.44,5.44,5.44,5.44h45.25c3,0,5.44-2.44,5.44-5.44v-36.64c0-3.86,1.56-7.36,4.09-9.89,2.53-2.55,6.03-4.12,9.89-4.12h28.13c3.86,0,7.34,1.56,9.89,4.09,2.53,2.53,4.12,6.05,4.12,9.92v36.64c0,3,2.44,5.44,5.44,5.44h93.58c4.85,0,7.27-5.86,3.85-9.29Z"/>
  </g>
</svg>